<svg data-v-423bf9ae="" xmlns="http://www.w3.org/2000/svg" viewBox="0 0 422 90" class="iconLeft"><!----><!----><!----><g data-v-423bf9ae="" id="e7545406-2abf-4e09-a45c-d10f5b8f98a4" fill="white" transform="matrix(6.1224488604322,0,0,6.1224488604322,133.85676684355604,10.714287480008146)"><path d="M3.35 10.50L2.10 2.67L1.39 7.20L2.10 7.20L2.10 8.18L1.23 8.18L0.85 10.50L-0.14 10.50L0.24 8.18L-0.14 8.18L-0.14 7.20L0.39 7.20L1.43 0.70L2.77 0.70L4.34 10.50L3.35 10.50ZM5.87 9.51L8.41 9.51L8.41 10.50L4.89 10.50L4.89 9.51L4.89 0.70L5.87 0.70L5.87 9.51ZM10.32 9.51L12.87 9.51L12.87 10.50L9.34 10.50L9.34 9.51L9.34 0.70L10.32 0.70L10.32 9.51ZM17.32 1.68L14.77 1.68L14.77 4.62L16.81 4.62L16.81 5.60L14.77 5.60L14.77 9.52L17.32 9.52L17.32 10.50L13.79 10.50L13.79 4.62L14.77 4.62L13.79 1.68L13.79 0.70L17.32 0.70L17.32 1.68ZM21.17 0.70L22.15 0.70L22.15 10.50L21.17 10.50L21.17 10.50L21.14 10.50L19.21 4.03L19.21 10.50L18.23 10.50L18.23 0.70L19.21 0.70L19.21 0.71L21.17 7.18L21.17 0.70ZM29.36 0.70L30.84 0.70L30.84 10.50L29.86 10.50L29.86 3.53L28.77 9.79L27.44 9.79L26.35 3.53L26.35 10.50L25.37 10.50L25.37 0.70L26.87 0.70L28.11 7.95L29.36 0.70ZM34.66 0.71L35.64 0.71L35.64 9.39L35.64 9.39Q35.64 9.81 35.38 10.12L35.38 10.12L35.38 10.12Q35.13 10.43 34.72 10.50L34.72 10.50L32.69 10.50L32.69 10.50Q32.28 10.43 32.02 10.12L32.02 10.12L32.02 10.12Q31.75 9.81 31.75 9.39L31.75 9.39L31.75 0.71L32.73 0.71L32.73 9.39L32.73 9.39Q32.73 9.53 32.87 9.53L32.87 9.53L34.54 9.53L34.54 9.53Q34.66 9.53 34.66 9.39L34.66 9.39L34.66 0.71ZM40.32 2.86L39.34 2.86L39.34 1.81L39.34 1.81Q39.34 1.67 39.20 1.67L39.20 1.67L37.67 1.67L37.67 1.67Q37.53 1.67 37.53 1.81L37.53 1.81L37.53 4.47L37.53 4.47Q37.53 4.56 37.62 4.59L37.62 4.59L39.20 4.59L39.20 4.59Q39.68 4.59 40.00 4.92L40.00 4.92L40.00 4.92Q40.32 5.25 40.32 5.71L40.32 5.71L40.32 9.39L40.32 9.39Q40.32 9.81 40.05 10.12L40.05 10.12L40.05 10.12Q39.79 10.43 39.38 10.50L39.38 10.50L37.49 10.50L37.49 10.50Q37.09 10.43 36.82 10.12L36.82 10.12L36.82 10.12Q36.55 9.81 36.55 9.39L36.55 9.39L36.55 8.34L37.53 8.34L37.53 9.39L37.53 9.39Q37.53 9.53 37.67 9.53L37.67 9.53L39.20 9.53L39.20 9.53Q39.34 9.53 39.34 9.39L39.34 9.39L39.34 5.71L39.34 5.71Q39.34 5.61 39.26 5.59L39.26 5.59L37.67 5.59L37.67 5.59Q37.21 5.59 36.88 5.26L36.88 5.26L36.88 5.26Q36.55 4.93 36.55 4.47L36.55 4.47L36.55 1.81L36.55 1.81Q36.55 1.39 36.82 1.08L36.82 1.08L36.82 1.08Q37.09 0.77 37.49 0.70L37.49 0.70L39.38 0.70L39.38 0.70Q39.79 0.77 40.05 1.08L40.05 1.08L40.05 1.08Q40.32 1.39 40.32 1.81L40.32 1.81L40.32 2.86ZM42.21 0.70L42.21 10.50L41.23 10.50L41.23 0.70L42.21 0.70ZM46.05 8.34L47.03 8.34L47.03 9.39L47.03 9.39Q47.03 9.81 46.77 10.12L46.77 10.12L46.77 10.12Q46.51 10.43 46.10 10.50L46.10 10.50L44.06 10.50L44.06 10.50Q43.65 10.43 43.39 10.12L43.39 10.12L43.39 10.12Q43.12 9.81 43.12 9.39L43.12 9.39L43.12 1.81L43.12 1.81Q43.12 1.39 43.39 1.08L43.39 1.08L43.39 1.08Q43.65 0.77 44.06 0.70L44.06 0.70L46.10 0.70L46.10 0.70Q46.51 0.77 46.77 1.08L46.77 1.08L46.77 1.08Q47.03 1.39 47.03 1.81L47.03 1.81L47.03 2.86L46.05 2.86L46.05 1.81L46.05 1.81Q46.05 1.67 45.92 1.67L45.92 1.67L44.24 1.67L44.24 1.67Q44.10 1.67 44.10 1.81L44.10 1.81L44.10 9.39L44.10 9.39Q44.10 9.53 44.24 9.53L44.24 9.53L45.92 9.53L45.92 9.53Q46.05 9.53 46.05 9.39L46.05 9.39L46.05 8.34Z"></path></g><!----><g data-v-423bf9ae="" id="9470b24e-faae-4fae-a449-ee269988c97b" transform="matrix(1.1770793773826755,0,0,1.1770793773826755,-1.8539688691337801,-9.512080725112178)" stroke="none" fill="white"><path d="M95 8.539L53 22.986V73.27c-1.832-.864-4.27-1.001-6.694-.193-4.192 1.397-6.74 5.078-5.692 8.222 1.048 3.144 5.295 4.559 9.487 3.162 3.742-1.247 6.166-4.314 5.899-7.195V32l36-12.397v32.681c-1.835-.876-4.286-1.019-6.722-.207-4.192 1.397-6.74 5.078-5.692 8.222 1.048 3.144 5.295 4.559 9.487 3.162 3.525-1.175 5.878-3.965 5.918-6.692H95V8.539zM19 9v43c-1.869-.892-4.481-.971-6.963-.143-4.269 1.423-6.865 5.172-5.798 8.374 1.067 3.202 5.393 4.644 9.663 3.221 3.59-1.197 6.047-4.038 6.087-6.816H22V23s12.926 3.741 17 18c0-16.296-14-19-20-32zM37.423 79H2v2h35.476a7.751 7.751 0 0 1-.053-2z"></path><path d="M98 81v-2H58.9a8.662 8.662 0 0 1-.591 2H98zM5.078 64H2v2h5.87a8.874 8.874 0 0 1-2.792-2zM98 66v-2h-3.769a13.016 13.016 0 0 1-3.377 2H98zM78.401 64H59v2h22.155a8.74 8.74 0 0 1-2.754-2zM21.09 64a13.4 13.4 0 0 1-3.433 2H50v-2H21.09zM25 49h25v2H25zM11.125 49H2v2h5.25a13.625 13.625 0 0 1 3.839-1.99l.036-.01zM59 51h21.822a13.5 13.5 0 0 1 3.507-1.769c.264-.088.53-.16.796-.231H59v2zM32.25 34H25v2h8.595a22.994 22.994 0 0 0-1.345-2zM2 34h14v2H2zM59 36h30v-2H59.406l-.406.14zM41.551 36H50v-2h-8.898c.175.642.323 1.311.449 2zM32.734 21h18.028a2.991 2.991 0 0 1 1.263-.851L55.366 19h-24.68l.011.011c.68.657 1.362 1.317 2.037 1.989zM2 19h14v2H2z"></path></g><!----></svg>